<svg width="43" height="28" viewBox="0 0 43 28" fill="none" xmlns="http://www.w3.org/2000/svg">
<path d="M0 26.511C3.35789 27.4513 6.71578 27.7279 10.0737 27.6533C10.0737 19.3267 10.0737 11.0002 10.0737 2.67351C6.71578 2.7482 3.35789 2.47147 0 1.53125C0 9.85789 0 18.1845 0 26.511Z" fill="#E62328"/>
<path d="M32.7491 25.3683C36.107 25.2936 39.4649 25.5704 42.8228 26.5106C42.8228 18.1839 42.8228 9.8574 42.8228 1.53077C39.4649 0.590556 36.107 0.313823 32.7491 0.388507C32.7491 8.71502 32.7491 17.0417 32.7491 25.3683Z" fill="#E62328"/>
<path d="M10.0737 27.6529C17.6322 27.4848 25.1907 25.5365 32.7492 25.3685C32.7492 17.0418 32.7492 8.71532 32.7492 0.388672C25.1907 0.556793 17.6322 2.50507 10.0737 2.67308C10.0737 10.9997 10.0737 19.3262 10.0737 27.6529Z" fill="white"/>
<path d="M21.4115 4.76953C20.9165 5.80075 20.4214 6.83197 19.9263 7.86215C19.7556 8.20049 19.4535 8.2072 19.1515 8.07497C18.7929 7.93001 18.4343 7.7841 18.0757 7.63718C18.3431 9.08095 18.6104 10.524 18.8778 11.9666C19.0484 12.7559 18.5073 12.8285 18.2388 12.5123C17.6128 11.8646 16.987 11.2137 16.361 10.5573C16.2592 10.9394 16.1575 11.3212 16.0558 11.703C16.0243 11.8502 15.8695 12.0237 15.6369 12.0113C14.846 11.9237 14.0552 11.8261 13.2643 11.7146C13.4721 12.4858 13.6798 13.2561 13.8875 14.0255C14.0221 14.5393 14.1232 14.7496 13.7517 14.9205C13.4695 15.0828 13.1875 15.2434 12.9054 15.402C14.2682 16.4543 15.631 17.4633 16.9938 18.4496C17.1538 18.5621 17.2357 18.7814 17.1759 19.0046C17.0574 19.4267 16.9387 19.8488 16.82 20.2706C18.2234 19.9338 19.4885 19.6049 20.8928 19.2389C21.0148 19.2219 21.2254 19.3024 21.2254 19.4535C21.1626 20.955 21.0998 22.4567 21.0369 23.9583C21.2657 23.9262 21.4945 23.8942 21.7233 23.8621C21.6865 22.3776 21.6496 20.8932 21.6127 19.4087C21.6127 19.2623 21.8022 19.1115 21.9242 19.0945C23.3338 19.0679 24.5926 19.048 26 19.0444C25.8804 18.6513 25.7608 18.2584 25.6411 17.8656C25.584 17.6569 25.6695 17.4169 25.8263 17.2654C27.1888 15.9462 28.5512 14.6495 29.9137 13.3962C29.6316 13.2791 29.3494 13.1639 29.0674 13.0503C28.6935 12.9447 28.8 12.7166 28.9326 12.1789C29.1403 11.3729 29.3481 10.5677 29.5558 9.76364C28.7649 10.0005 27.974 10.2513 27.1831 10.5122C26.9495 10.5758 26.7958 10.4374 26.7611 10.2978C26.6604 9.93906 26.5596 9.58046 26.459 9.22197C25.8327 10.0245 25.2064 10.8324 24.5801 11.6438C24.3126 12.0296 23.7719 12.1024 23.941 11.2676C24.2077 9.75345 24.4745 8.23973 24.7411 6.72661C24.3832 6.96663 24.0253 7.2077 23.6675 7.44971C23.3654 7.6638 23.0632 7.73999 22.897 7.4482C22.4016 6.55466 21.9065 5.66216 21.4115 4.76953Z" fill="#E62328"/>
</svg>
