<svg width="28" height="29" viewBox="0 0 28 29" fill="none" xmlns="http://www.w3.org/2000/svg">
<path d="M19.589 28.4079H8.08644C7.54249 28.4079 6.99826 28.3526 6.4689 28.2435C5.95324 28.1373 5.44553 27.9788 4.95988 27.7725C4.48321 27.57 4.02313 27.3194 3.59241 27.0278C3.16585 26.739 2.7645 26.4075 2.39951 26.0425C2.03454 25.6776 1.70304 25.2762 1.41421 24.8496C1.12258 24.4189 0.872043 23.9588 0.669538 23.4822C0.463224 22.9965 0.304752 22.4888 0.198526 21.9731C0.0894748 21.4438 0.0341797 20.8995 0.0341797 20.3556V8.85305C0.0341797 8.30908 0.0894748 7.76485 0.198526 7.23549C0.304752 6.71984 0.463224 6.21213 0.669538 5.72646C0.872037 5.24982 1.12258 4.78973 1.41421 4.35899C1.70304 3.93241 2.03454 3.53106 2.39951 3.16609C2.76451 2.8011 3.16586 2.4696 3.59241 2.1808C4.02315 1.88917 4.48324 1.63863 4.95988 1.43614C5.44552 1.22983 5.95322 1.07136 6.4689 0.965119C6.99826 0.856073 7.54249 0.800781 8.08644 0.800781H19.589C20.133 0.800781 20.6772 0.856073 21.2066 0.965119C21.7222 1.07136 22.2299 1.22983 22.7156 1.43614C23.1922 1.63863 23.6523 1.88917 24.083 2.1808C24.5096 2.46962 24.911 2.80111 25.2759 3.16609C25.6409 3.53109 25.9725 3.93244 26.2612 4.35899C26.5529 4.78972 26.8034 5.2498 27.0059 5.72646C27.2122 6.2121 27.3707 6.71981 27.4769 7.23549C27.586 7.76484 27.6413 8.30907 27.6413 8.85305V20.3556C27.6413 20.8996 27.586 21.4438 27.4769 21.9731C27.3707 22.4888 27.2122 22.9965 27.0059 23.4822C26.8034 23.9588 26.5529 24.4189 26.2612 24.8496C25.9724 25.2762 25.6409 25.6775 25.2759 26.0425C24.911 26.4075 24.5096 26.739 24.083 27.0278C23.6523 27.3194 23.1922 27.57 22.7156 27.7725C22.2299 27.9788 21.7222 28.1373 21.2066 28.2435C20.6772 28.3526 20.133 28.4079 19.589 28.4079ZM13.8377 6.8822C9.57973 6.8822 6.1156 10.3463 6.1156 14.6043C6.1156 18.8623 9.57973 22.3264 13.8377 22.3264C18.0957 22.3264 21.5598 18.8623 21.5598 14.6043C21.5598 10.3463 18.0957 6.8822 13.8377 6.8822ZM21.3144 5.40218C20.363 5.40218 19.589 6.17621 19.589 7.12762C19.589 8.07902 20.363 8.85305 21.3144 8.85305H21.3182C21.778 8.85305 22.2103 8.67395 22.5356 8.34875C22.8571 8.0273 23.0408 7.58222 23.0399 7.12762C23.0399 6.17621 22.2658 5.40218 21.3144 5.40218ZM13.8377 19.7526C13.1427 19.7526 12.4685 19.6165 11.8338 19.348C11.5287 19.219 11.2344 19.0593 10.9593 18.8734C10.6866 18.6892 10.4303 18.4777 10.1973 18.2447C9.96434 18.0117 9.75283 17.7554 9.56865 17.4828C9.38272 17.2075 9.22301 16.9133 9.09399 16.6083C8.82553 15.9736 8.68941 15.2993 8.68941 14.6043C8.69016 13.9096 8.82677 13.2357 9.09545 12.6013C9.22461 12.2964 9.38439 12.0023 9.57033 11.7272C9.75455 11.4547 9.96604 11.1984 10.1989 10.9655C10.4318 10.7326 10.6881 10.5211 10.9606 10.3369C11.2357 10.1509 11.5298 9.99118 11.8347 9.86204C12.4691 9.59336 13.143 9.45675 13.8377 9.45602C14.5327 9.45602 15.207 9.59214 15.8417 9.86059C16.1467 9.98962 16.441 10.1493 16.7162 10.3353C16.9888 10.5194 17.2452 10.7309 17.4781 10.9639C17.7111 11.1969 17.9226 11.4532 18.1068 11.7258C18.2927 12.0011 18.4524 12.2953 18.5814 12.6004C18.8499 13.2351 18.986 13.9093 18.986 14.6043C18.986 15.2993 18.8499 15.9735 18.5814 16.6083C18.4524 16.9133 18.2927 17.2075 18.1068 17.4828C17.9226 17.7554 17.7111 18.0117 17.4781 18.2447C17.2452 18.4777 16.9888 18.6892 16.7162 18.8734C16.441 19.0593 16.1467 19.219 15.8417 19.348C15.207 19.6165 14.5327 19.7526 13.8377 19.7526Z" fill="#00DAA0"/>
</svg>
