<svg width="42" height="31" viewBox="0 0 42 31" fill="none" xmlns="http://www.w3.org/2000/svg">
<path d="M20.8141 0.915697C25.1133 0.915697 29.4122 0.969668 33.7024 1.28767C34.7157 1.36279 35.7284 1.46071 36.7274 1.65079C39.1337 2.1087 40.6944 3.72495 41.1516 6.2521C41.7853 9.75538 41.8707 13.2968 41.8098 16.8428C41.7669 19.3404 41.6239 21.8327 41.2503 24.3088C40.9788 26.107 40.318 27.6529 38.7233 28.6798C37.7495 29.3068 36.6509 29.4872 35.5361 29.6049C31.2258 30.0599 26.8973 30.1131 22.5694 30.1562C18.1823 30.2 13.7973 30.1104 9.4167 29.859C8.01103 29.7783 6.60778 29.6567 5.21631 29.4276C2.83425 29.0355 1.21 27.4245 0.711162 24.9617C0.341158 23.1345 0.213107 21.2809 0.107981 19.4254C-0.0679493 16.3177 -0.0238684 13.211 0.203544 10.1079C0.308539 8.67517 0.441961 7.2431 0.774106 5.83985C1.35626 3.3799 3.07345 1.85757 5.58855 1.54272C9.67562 1.03104 13.7859 0.987287 17.895 0.91812C18.8678 0.901745 19.8411 0.915697 20.8141 0.915697ZM16.779 9.27527V21.7826C20.4091 19.6915 23.993 17.6271 27.6366 15.5282C23.9808 13.4229 20.4016 11.3615 16.779 9.27527Z" fill="#00DA9E"/>
</svg>
