<svg width="31" height="31" viewBox="0 0 31 31" fill="none" xmlns="http://www.w3.org/2000/svg">
<path d="M16.4331 30.972H14.4998C14.1225 30.9256 13.744 30.8854 13.3677 30.8313C10.2893 30.3915 7.56621 29.164 5.24056 27.0972C2.55506 24.7102 0.877981 21.7432 0.240762 18.2008C0.137652 17.6286 0.0793947 17.0486 0 16.4722V14.5389C0.0793947 14.3471 0.051555 14.1424 0.0732081 13.944C0.431 10.6676 1.66987 7.77076 3.8558 5.30128C6.25877 2.58536 9.25206 0.896422 12.832 0.272607C13.3847 0.176199 13.9441 0.115879 14.4998 0.0390625H16.4331C16.5105 0.0560756 16.5873 0.0828842 16.6657 0.0885553C19.0738 0.268482 21.3283 0.959834 23.3828 2.22448C27.3752 4.68262 29.8343 8.21774 30.6958 12.8402C30.8005 13.4016 30.8551 13.9723 30.933 14.5389V16.4722C30.8474 16.663 30.8814 16.8687 30.8598 17.0672C30.5272 20.1259 29.4193 22.8702 27.4669 25.25C25.0387 28.2087 21.9325 30.0461 18.1602 30.7323C17.589 30.8365 17.009 30.8932 16.4331 30.972ZM16.8214 13.5779C16.8214 13.1655 16.8152 12.7572 16.8244 12.3488C16.8286 12.1663 16.7909 12.0761 16.578 12.0777C15.4809 12.0869 14.3838 12.0854 13.2867 12.0782C13.097 12.0771 13.0511 12.1437 13.0532 12.3241C13.0996 15.9376 13.0584 19.5516 13.0491 23.1651C13.0486 23.3888 13.1269 23.4259 13.3259 23.4244C14.4029 23.4156 15.4799 23.4146 16.5569 23.4249C16.7698 23.427 16.8275 23.3625 16.826 23.1537C16.8162 22.1273 16.8188 21.1003 16.8224 20.0738C16.826 18.9566 16.8219 17.8389 16.8477 16.7223C16.8636 16.0402 17.2173 15.5164 17.7622 15.1344C18.8454 14.3744 20.2348 14.8575 20.6241 16.116C20.7565 16.5434 20.787 16.9831 20.7864 17.428C20.7844 19.3304 20.789 21.2333 20.7813 23.1357C20.7803 23.3512 20.821 23.429 21.0576 23.4259C22.1248 23.412 23.192 23.412 24.2587 23.4259C24.5025 23.429 24.5572 23.3533 24.5561 23.1223C24.5479 21.0689 24.552 19.0154 24.55 16.962C24.5494 16.5392 24.5237 16.118 24.4701 15.6973C24.1891 13.4934 22.8749 12.1029 20.7483 11.8555C19.2094 11.6761 17.9056 12.1395 16.9838 13.4573C16.9518 13.5037 16.9322 13.5666 16.8214 13.5779ZM7.20017 17.7389C7.20017 19.5413 7.20274 21.3436 7.19656 23.1455C7.19553 23.344 7.23058 23.428 7.45588 23.4254C8.54317 23.4136 9.63047 23.4141 10.7178 23.4254C10.94 23.4275 10.9807 23.3486 10.9802 23.1475C10.975 19.5531 10.9745 15.9587 10.9812 12.3643C10.9817 12.1354 10.9111 12.0746 10.6889 12.0771C9.6315 12.0875 8.57411 12.089 7.51723 12.0761C7.2708 12.0735 7.19295 12.1364 7.1945 12.3927C7.20532 14.1749 7.20017 15.9572 7.20017 17.7389ZM8.9783 6.62418C8.29571 6.64944 7.58786 6.91495 7.18779 7.7058C6.67276 8.72247 7.12799 9.93349 8.17404 10.3702C9.35568 10.8641 10.7477 10.3222 11.1147 9.22513C11.5633 7.88676 10.6043 6.63037 8.9783 6.62418Z" fill="#00DA9C"/>
</svg>
