<svg width="32" height="26" viewBox="0 0 32 26" fill="none" xmlns="http://www.w3.org/2000/svg">
<path d="M31.9535 3.49607C30.7885 4.00655 29.5558 4.34291 28.2945 4.49437C29.6201 3.71167 30.6169 2.46813 31.0981 0.99712C29.8449 1.73606 28.476 2.25456 27.0502 2.53048C25.8369 1.24819 24.155 0.524059 22.3974 0.527355C18.8762 0.527355 16.0266 3.35907 16.0266 6.84979C16.0241 7.33535 16.0793 7.81951 16.1909 8.2918C11.0854 8.05042 6.31701 5.65097 3.05597 1.68215C2.49019 2.64401 2.19098 3.74144 2.1896 4.8598C2.1896 7.05207 3.32385 8.98996 5.03658 10.1252C4.02184 10.101 3.0279 9.83015 2.13911 9.33582V9.41402C2.13911 12.4807 4.33904 15.032 7.25075 15.6127C6.70321 15.7598 6.13897 15.8344 5.57231 15.8344C5.17023 15.8352 4.76906 15.7958 4.37464 15.717C5.1841 18.229 7.53998 20.056 10.3307 20.1082C8.06303 21.8705 5.27896 22.823 2.41605 22.816C1.90788 22.8152 1.40019 22.7847 0.895508 22.7246C3.80795 24.6 7.19345 25.592 10.649 25.5825C22.3838 25.5825 28.7947 15.9454 28.7947 7.58719C28.7947 7.31303 28.7875 7.039 28.7746 6.77151C30.0189 5.87901 31.0954 4.76985 31.9535 3.49607Z" fill="#00DAA0"/>
</svg>
