<svg width="28" height="29" viewBox="0 0 28 29" fill="none" xmlns="http://www.w3.org/2000/svg">
<path fill-rule="evenodd" clip-rule="evenodd" d="M23.7929 4.81249C21.2154 2.23369 17.7155 0.789755 14.0694 0.800845C6.49357 0.800845 0.326309 6.93724 0.323223 14.4812C0.319923 16.8833 0.953098 19.2434 2.15841 21.3213L0.208008 28.4079L7.49492 26.5056C9.51198 27.5984 11.7699 28.1702 14.0639 28.1694H14.0695C21.6448 28.1694 27.8114 22.0324 27.8151 14.4892C27.8243 10.8551 26.3754 7.36928 23.7929 4.81249ZM20.9707 17.1769C20.6275 17.0055 18.9372 16.1785 18.6241 16.0645C18.3111 15.9506 18.08 15.8933 17.8514 16.2359C17.6228 16.5785 16.964 17.3451 16.7637 17.5762C16.5634 17.8073 16.3631 17.8325 16.0199 17.6612C15.6767 17.4899 14.5693 17.1294 13.2574 15.9647C12.2363 15.0582 11.5473 13.9391 11.3471 13.5972C11.1467 13.2552 11.3255 13.0697 11.4974 12.8996C11.6521 12.7461 11.8407 12.5003 12.0126 12.3006C12.1845 12.101 12.2418 11.958 12.3558 11.73C12.4698 11.502 12.4131 11.3023 12.3275 11.1316C12.2418 10.9609 11.5547 9.278 11.2688 8.5934C10.9896 7.92659 10.7068 8.0172 10.496 8.00674C10.2958 7.9969 10.0647 7.99442 9.83729 7.99442C9.48593 8.00357 9.15413 8.1585 8.9216 8.42209C8.60664 8.76467 7.71927 9.59289 7.71927 11.274C7.71927 12.9551 8.95179 14.5819 9.12183 14.8099C9.29195 15.0379 11.5436 18.4906 14.989 19.9714C15.6288 20.2454 16.2824 20.4857 16.9473 20.6912C17.77 20.9513 18.5187 20.9149 19.1103 20.8268C19.7703 20.7288 21.1439 19.9998 21.4292 19.2012C21.7145 18.4025 21.7151 17.7185 21.6294 17.5762C21.5438 17.4338 21.3145 17.3475 20.9707 17.1769Z" fill="#00DAA0"/>
</svg>
